<?xml version="1.0" standalone="no"?>
<!DOCTYPE svg PUBLIC "-//W3C//DTD SVG 20010904//EN"
 "http://www.w3.org/TR/2001/REC-SVG-20010904/DTD/svg10.dtd">
<svg version="1.0" xmlns="http://www.w3.org/2000/svg"
 width="91.000000pt" height="91.000000pt" viewBox="0 0 91.000000 91.000000"
 preserveAspectRatio="xMidYMid meet">
<metadata>
Created by potrace 1.11, written by Peter Selinger 2001-2013
</metadata>
<g transform="translate(0.000000,91.000000) scale(0.100000,-0.100000)"
fill="#000000" stroke="none">
<path d="M812 688 c-217 -300 -354 -483 -361 -486 -5 -2 -26 21 -47 50 -21 29
-42 58 -47 63 -4 6 -82 111 -174 235 -91 124 -169 229 -174 234 -5 6 -9 -138
-9 -342 l0 -352 455 0 455 0 0 360 c0 198 -2 360 -4 360 -3 0 -45 -55 -94
-122z"/>
<path d="M308 718 c-15 -12 -11 -26 54 -170 39 -87 76 -158 83 -158 17 0 166
313 154 325 -16 16 -271 19 -291 3z"/>
</g>
</svg>
